<?xml version="1.0" standalone="no"?>
<!DOCTYPE svg PUBLIC "-//W3C//DTD SVG 20010904//EN"
 "http://www.w3.org/TR/2001/REC-SVG-20010904/DTD/svg10.dtd">
<svg version="1.0" xmlns="http://www.w3.org/2000/svg"
 width="1122.000000pt" height="162.000000pt" viewBox="0 0 1122.000000 162.000000"
 preserveAspectRatio="xMidYMid meet">
<metadata>
Created by potrace 1.16, written by Peter Selinger 2001-2019
</metadata>
<g transform="translate(0.000000,162.000000) scale(0.100000,-0.100000)"
fill="#0038A8" stroke="none">
<path d="M205 1451 c-17 -10 -40 -31 -50 -47 -19 -28 -20 -53 -20 -674 l0
-645 23 -37 c12 -20 29 -39 38 -42 9 -3 260 -6 558 -6 l543 0 21 23 c26 28 42
70 41 110 0 29 -1 30 -12 12 -7 -11 -26 -34 -44 -52 l-31 -33 -501 0 -502 0
-25 27 c-33 35 -39 65 -20 100 31 60 6 58 545 63 453 5 499 7 524 23 61 40 62
44 65 365 2 179 -1 293 -6 291 -5 -2 -100 -103 -212 -224 -261 -285 -272 -295
-311 -295 -26 0 -50 19 -156 122 -122 120 -124 123 -118 158 12 62 71 104 115
80 11 -6 50 -37 87 -70 37 -33 70 -60 74 -60 3 0 124 128 268 284 l261 285 0
73 c0 96 -28 157 -80 175 -25 9 -176 12 -540 12 -475 1 -507 0 -535 -18z"/>
<path d="M7704 1175 c-17 -7 -35 -21 -40 -31 -5 -11 -10 -191 -12 -401 -3
-375 -3 -382 17 -402 27 -27 102 -29 122 -4 11 12 15 71 17 260 2 133 6 243
10 243 4 0 18 -19 31 -43 45 -78 268 -412 293 -439 30 -31 89 -45 123 -30 16
8 26 23 31 47 12 64 -1 757 -14 782 -24 44 -99 42 -128 -2 -13 -19 -17 -68
-22 -252 l-7 -227 -114 179 c-124 195 -194 297 -214 312 -22 18 -62 22 -93 8z"/>
<path d="M1886 1167 c-30 -22 -35 -89 -35 -458 -1 -336 0 -347 20 -373 34 -44
109 -28 129 27 6 18 10 130 10 275 l0 246 64 -95 c103 -150 132 -169 189 -119
20 17 59 67 89 112 l53 81 6 -246 c5 -203 8 -250 22 -270 21 -32 67 -43 104
-25 41 19 45 68 41 469 -3 325 -4 348 -22 368 -13 14 -31 21 -56 21 -50 0 -79
-31 -187 -198 -48 -73 -91 -131 -96 -129 -5 1 -45 59 -89 127 -102 160 -140
200 -188 200 -20 0 -44 -6 -54 -13z"/>
<path d="M6421 1148 c-94 -36 -171 -132 -200 -253 -16 -63 -16 -217 0 -282 29
-120 99 -211 197 -256 68 -32 198 -30 266 3 102 49 161 143 178 279 28 235
-51 440 -197 507 -66 31 -167 32 -244 2z m209 -176 c54 -53 73 -126 68 -251
-6 -148 -49 -218 -143 -228 -107 -13 -185 96 -185 256 1 170 63 260 179 261
37 0 49 -5 81 -38z"/>
<path d="M7257 1106 c-21 -8 -40 -16 -41 -18 -21 -23 -39 -85 -43 -147 -6 -86
-14 -101 -53 -101 -33 0 -60 -28 -60 -61 0 -33 18 -49 55 -49 16 0 35 -4 42
-8 8 -5 13 -63 15 -191 3 -167 5 -184 22 -197 29 -21 80 -18 102 7 17 18 20
42 24 195 5 191 6 194 67 194 22 0 36 6 43 19 24 47 0 91 -50 91 -50 0 -60 9
-60 54 0 53 15 72 63 79 22 3 45 11 53 18 21 17 18 83 -5 103 -26 24 -124 31
-174 12z"/>
<path d="M4368 1099 c-22 -13 -38 -70 -38 -140 l0 -56 -72 -5 c-59 -5 -75 -10
-90 -28 -40 -49 -1 -120 65 -120 19 0 49 -3 66 -6 l31 -6 1 -112 c1 -186 12
-276 34 -292 27 -20 99 -18 116 3 10 12 15 67 19 212 l5 196 64 7 c74 8 101
27 101 73 0 48 -29 68 -105 73 l-64 4 -7 81 c-6 65 -11 85 -30 104 -24 24 -66
30 -96 12z"/>
<path d="M9414 1102 c-24 -15 -34 -54 -34 -125 l0 -74 -76 -5 c-87 -6 -108
-20 -108 -73 0 -54 22 -69 109 -73 l75 -4 0 -188 c0 -174 1 -189 21 -214 16
-21 29 -26 62 -26 73 0 71 -4 77 222 l5 203 55 6 c79 9 97 16 108 47 12 36 -3
76 -34 91 -14 6 -49 11 -78 11 l-53 0 -7 77 c-10 108 -25 133 -81 133 -16 0
-35 -4 -41 -8z"/>
<path d="M5556 917 c-28 -20 -35 -85 -36 -315 0 -234 8 -276 53 -287 43 -11
71 -1 94 34 21 31 23 45 23 178 l0 145 30 28 c39 36 91 54 138 46 111 -18 122
-18 137 -6 8 7 15 27 15 45 0 40 -50 88 -107 104 -48 14 -139 4 -180 -19 l-32
-19 -11 34 c-6 18 -18 36 -26 39 -27 10 -80 6 -98 -7z"/>
<path d="M3715 901 c-106 -26 -165 -116 -137 -210 18 -57 57 -86 161 -120 126
-41 139 -53 101 -91 -27 -27 -72 -25 -145 6 -89 38 -100 39 -119 13 -9 -13
-16 -35 -16 -49 0 -113 273 -176 384 -89 44 35 69 95 63 153 -6 69 -46 104
-158 141 -96 31 -140 65 -123 93 21 33 65 36 134 8 76 -31 82 -32 105 -6 76
84 -96 188 -250 151z"/>
<path d="M10780 895 c-90 -29 -143 -119 -120 -205 10 -37 52 -82 87 -95 197
-66 213 -76 179 -114 -27 -29 -74 -27 -158 9 -38 16 -76 30 -83 30 -20 0 -45
-40 -45 -73 0 -62 118 -127 228 -127 140 0 222 65 222 175 0 88 -39 126 -165
164 -85 25 -115 45 -115 75 0 17 9 27 30 36 26 11 39 9 104 -15 58 -21 78 -25
94 -16 50 27 33 98 -32 136 -54 32 -161 41 -226 20z"/>
<path d="M8694 889 c-66 -19 -127 -71 -161 -137 -30 -58 -33 -72 -33 -150 1
-186 96 -282 280 -282 128 1 198 37 245 130 34 67 47 145 35 207 -28 151 -132
244 -269 242 -37 0 -80 -5 -97 -10z m158 -173 c27 -17 51 -84 43 -126 -16 -87
-76 -131 -153 -111 -61 17 -87 52 -86 115 2 65 24 108 66 130 35 17 96 14 130
-8z"/>
<path d="M4975 876 c-55 -21 -128 -101 -146 -162 -21 -75 -17 -199 8 -256 26
-57 84 -101 155 -118 64 -16 188 -8 246 15 74 30 104 92 62 130 -19 17 -23 17
-105 0 -98 -20 -165 -16 -204 12 -53 41 -38 48 124 54 89 3 159 10 173 18 58
31 55 160 -5 231 -61 73 -213 110 -308 76z"/>
<path d="M2945 848 c-79 -28 -127 -80 -155 -167 -50 -159 4 -298 132 -336 94
-28 193 -15 256 32 l34 25 31 -30 c43 -41 69 -47 98 -24 33 28 30 73 -14 183
-20 52 -43 120 -52 153 -20 71 -90 148 -151 165 -49 14 -139 13 -179 -1z m129
-138 c56 -21 82 -109 51 -170 -26 -50 -63 -72 -110 -64 -55 9 -72 19 -91 56
-31 60 -2 147 59 173 39 17 58 18 91 5z"/>
<path d="M10005 836 c-102 -48 -144 -124 -145 -258 0 -102 7 -123 56 -177 76
-85 258 -97 344 -24 l31 26 32 -31 c44 -41 68 -47 100 -21 31 24 34 54 11 114
-9 22 -35 95 -59 163 -51 147 -70 174 -150 212 -58 28 -156 27 -220 -4z m154
-127 c78 -27 82 -148 8 -218 -22 -19 -32 -22 -62 -17 -63 12 -84 27 -101 71
-26 70 1 138 66 164 33 13 51 13 89 0z"/>
</g>
</svg>
