<svg width="263" height="38" viewBox="0 0 263 38" fill="none" xmlns="http://www.w3.org/2000/svg">
<path d="M4.74362 12.6494V15.8118V17.393V22.1367V23.7179V31.6239V33.2051C4.74362 34.9524 6.15944 36.3675 7.90604 36.3675H30.043C31.7902 36.3675 33.2054 34.9524 33.2054 33.2051V31.6239V23.7179V17.393V12.6494H4.74362Z" fill="#0038A8"/>
<path d="M4.74362 11.0684V14.2308V15.812V20.5556V22.1368V30.0429V31.6241C4.74362 33.3634 6.15944 34.7865 7.90604 34.7865H30.043C31.7902 34.7865 33.2054 33.3634 33.2054 31.6241V30.0429V22.1368V15.812V11.0684H4.74362Z" fill="#ECF0F1"/>
<path d="M4.74362 9.4873V12.6497V14.2309V18.9746V20.5558V28.4618V30.043C4.74362 31.7824 6.15944 33.2054 7.90604 33.2054H30.043C31.7902 33.2054 33.2054 31.7824 33.2054 30.043V28.4618V20.5558V14.2309V9.4873H4.74362Z" fill="#BDC3C7"/>
<path d="M4.74362 7.90576V11.0682V12.6494V17.393V18.9742V26.8803V28.4615C4.74362 30.2008 6.15944 31.6239 7.90604 31.6239H30.043C31.7902 31.6239 33.2054 30.2008 33.2054 28.4615V26.8803V18.9742V12.6494V7.90576H4.74362Z" fill="#ECF0F1"/>
<path d="M7.90604 1.58105C6.15944 1.58105 4.74362 2.99687 4.74362 4.74347V6.32468V12.6495V15.8119V17.3931V22.1368V23.718V31.624V33.2052C4.74362 34.9525 6.15944 36.3677 7.90604 36.3677H11.0685V34.7864H8.69665C7.38677 34.7864 6.32483 33.7239 6.32483 32.4146C6.32483 31.1054 7.38677 30.0428 8.69665 30.0428H28.4618H30.043C31.7902 30.0428 33.2054 28.6276 33.2054 26.8804V25.2992V17.3931V11.0683V6.32468V4.74347C33.2054 2.99687 31.7902 1.58105 30.043 1.58105H23.7181H7.90604Z" fill="#0038A8"/>
<path d="M12.6497 1.58105V30.0428H14.2309H28.4618H30.043C31.7902 30.0428 33.2054 28.6276 33.2054 26.8804V25.2992V17.3931V11.0683V6.32468V4.74347C33.2054 2.99687 31.7902 1.58105 30.043 1.58105H23.7181H14.2309H12.6497Z" fill="#1E5BD7"/>
<path d="M17.6021 18.9423C17.3291 18.6716 16.9588 18.5195 16.5726 18.5195C16.1865 18.5195 15.8161 18.6716 15.5431 18.9423C15.27 19.213 15.1166 19.5802 15.1166 19.963C15.1166 20.3459 15.27 20.713 15.5431 20.9837L19.8932 25.2966C20.0287 25.4299 20.1894 25.5353 20.366 25.6068C20.5427 25.6784 20.7319 25.7146 20.9227 25.7136C21.1212 25.7073 21.3163 25.6607 21.4959 25.5766C21.6755 25.4925 21.8358 25.3728 21.9667 25.2247L37.6751 8.1656C37.9095 7.87711 38.0225 7.51005 37.9906 7.14097C37.9586 6.77189 37.7842 6.42927 37.5038 6.18455C37.2233 5.93984 36.8583 5.81191 36.485 5.82744C36.1117 5.84297 35.7589 6.00077 35.5 6.26792L20.9227 22.177L17.6021 18.9423Z" fill="white" stroke="white" stroke-width="1.57465"/>
<path d="M61.7938 26.3678C61.7752 26.5919 61.7471 26.8253 61.7098 27.068C61.6725 27.3107 61.6071 27.5348 61.5138 27.7401C61.4204 27.9642 61.299 28.1322 61.1497 28.2442C60.9443 28.431 60.7016 28.5336 60.4215 28.5523C60.1601 28.6457 59.9081 28.6737 59.6653 28.6363C59.4226 28.599 59.1986 28.5336 58.9932 28.4403C58.7318 28.2723 58.5358 28.0762 58.4051 27.8522C58.293 27.6094 58.209 27.3574 58.153 27.096C58.097 26.8346 58.069 26.5639 58.069 26.2838C58.069 26.0037 58.069 25.7424 58.069 25.4996V23.3151L58.041 19.0302C58.041 18.7315 58.041 18.4981 58.041 18.33C58.041 18.162 58.041 18.0126 58.041 17.8819C58.041 17.7326 58.0316 17.5739 58.013 17.4058C58.013 17.2191 58.013 16.9577 58.013 16.6217C58.013 16.5656 58.013 16.4723 58.013 16.3416C58.0316 16.1922 58.0223 15.8095 57.985 15.1933C57.2568 16.4069 56.65 17.3872 56.1646 18.134C55.6978 18.8622 55.2964 19.4316 54.9603 19.8424C54.6429 20.2345 54.3628 20.5052 54.1201 20.6546C53.8774 20.7852 53.6253 20.8599 53.3639 20.8786C53.2146 20.8973 53.0652 20.8693 52.9158 20.7946C52.7665 20.7199 52.6171 20.6265 52.4677 20.5145C52.337 20.4025 52.2064 20.2905 52.0757 20.1784C51.9636 20.0478 51.8703 19.9264 51.7956 19.8144C51.3475 19.2542 50.8434 18.5821 50.2833 17.7979C49.7231 17.0137 49.1443 16.0615 48.5469 14.9413C48.5469 14.9599 48.5375 15.268 48.5189 15.8655C48.5189 16.463 48.5189 17.2098 48.5189 18.106C48.5189 18.9835 48.5095 19.9357 48.4909 20.9626C48.4909 21.9708 48.4815 22.9137 48.4628 23.7913C48.4628 24.6688 48.4535 25.4063 48.4348 26.0037C48.4162 26.5825 48.3975 26.8719 48.3788 26.8719C48.3788 27.1893 48.3041 27.4881 48.1548 27.7681C48.0054 28.0295 47.8 28.2442 47.5386 28.4123C47.2959 28.5803 47.0065 28.6737 46.6704 28.6923C46.3344 28.711 45.9703 28.6177 45.5782 28.4123C45.3355 28.2629 45.1488 28.0482 45.0181 27.7681C44.9061 27.4881 44.8314 27.2267 44.794 26.984C44.7754 26.7226 44.7567 26.4705 44.738 26.2278C44.738 25.9851 44.738 25.733 44.738 25.4716L44.766 23.2871L44.794 18.9742V15.2213C44.794 13.597 44.85 12.0006 44.9621 10.4323C44.9621 10.2269 44.9807 10.0402 45.0181 9.87215C45.0741 9.68544 45.1394 9.50807 45.2141 9.34003C45.3635 9.0413 45.5595 8.81725 45.8023 8.66788C46.0823 8.49984 46.3811 8.41582 46.6985 8.41582C46.8292 8.41582 46.9505 8.42516 47.0625 8.44383C47.1932 8.44383 47.3146 8.45316 47.4266 8.47184C47.8 8.54652 48.1174 8.77057 48.3788 9.14398C48.6589 9.49873 48.9203 9.8068 49.163 10.0682C49.3124 10.2362 49.4711 10.4416 49.6391 10.6843C49.8071 10.927 49.9752 11.1791 50.1432 11.4405C50.3113 11.7019 50.47 11.9539 50.6193 12.1967C50.7687 12.4394 50.8994 12.6541 51.0114 12.8408C51.4969 13.625 51.9263 14.3438 52.2997 14.9973C52.6918 15.6508 53.0559 16.2109 53.3919 16.6777C53.448 16.6217 53.5133 16.547 53.588 16.4536C53.6627 16.3416 53.7374 16.2296 53.812 16.1175C53.9054 15.9868 53.9801 15.8655 54.0361 15.7535C54.1108 15.6414 54.1668 15.5481 54.2041 15.4734C54.3908 15.1747 54.5775 14.8853 54.7643 14.6052C54.951 14.3065 55.147 13.9984 55.3524 13.681C55.5764 13.3449 55.8005 12.9808 56.0245 12.5888C56.2673 12.1967 56.5473 11.7486 56.8647 11.2445C56.9954 11.0204 57.1635 10.7497 57.3688 10.4323C57.5742 10.1149 57.8076 9.8068 58.069 9.50807C58.3304 9.20933 58.6011 8.95728 58.8812 8.7519C59.1799 8.52785 59.4786 8.41582 59.7774 8.41582C59.9267 8.41582 60.0574 8.42516 60.1695 8.44383C60.2815 8.44383 60.3935 8.45316 60.5055 8.47184C60.7296 8.49051 60.9443 8.5932 61.1497 8.7799C61.299 8.92927 61.4111 9.08797 61.4858 9.25601C61.5604 9.49873 61.6071 9.70411 61.6258 9.87215C61.6445 10.0028 61.6538 10.1242 61.6538 10.2362C61.6725 10.3483 61.6818 10.4603 61.6818 10.5723C61.6818 11.6179 61.6911 12.6541 61.7098 13.681C61.7285 14.7079 61.7378 15.7441 61.7378 16.7897C61.7378 18.0593 61.7378 19.3663 61.7378 20.7106C61.7565 22.0549 61.7658 23.3618 61.7658 24.6314C61.7658 24.8928 61.7752 25.1729 61.7938 25.4716C61.8125 25.7704 61.8125 26.0691 61.7938 26.3678ZM69.6849 16.5936C70.2451 16.3136 70.8332 16.1175 71.4493 16.0055C72.0655 15.8748 72.6723 15.8468 73.2697 15.9215C73.8859 15.9775 74.474 16.1362 75.0341 16.3976C75.5943 16.6403 76.117 16.9951 76.6025 17.4618C77.0879 17.9473 77.4613 18.4794 77.7227 19.0582C77.9841 19.637 78.1708 20.2811 78.2829 20.9906C78.3575 21.4761 78.4789 21.9242 78.6469 22.3349C78.815 22.7457 78.9924 23.1564 79.1791 23.5672C79.3844 23.978 79.5712 24.3887 79.7392 24.7995C79.9259 25.2102 80.0753 25.6397 80.1873 26.0878C80.2806 26.5172 80.2433 26.9373 80.0753 27.348C79.9259 27.7401 79.6085 27.9829 79.1231 28.0762C78.843 28.1322 78.5723 28.1136 78.3109 28.0202C78.0682 27.9082 77.8441 27.7588 77.6387 27.5721C77.4333 27.3667 77.2466 27.152 77.0786 26.928C76.9292 26.6852 76.7892 26.4612 76.6585 26.2558C76.2291 26.8159 75.7623 27.2547 75.2582 27.5721C74.7541 27.8708 74.1473 28.0669 73.4378 28.1602C72.8403 28.2349 72.2709 28.2536 71.7294 28.2162C71.1879 28.1789 70.6092 28.0762 69.993 27.9082C69.1902 27.7028 68.5274 27.348 68.0046 26.8439C67.5005 26.3212 67.1084 25.7237 66.8283 25.0515C66.5669 24.3607 66.4269 23.6232 66.4082 22.839C66.3895 22.0549 66.4829 21.28 66.6883 20.5145C66.9497 19.5063 67.3418 18.6848 67.8645 18.05C68.3873 17.4152 68.9941 16.9297 69.6849 16.5936ZM70.3851 19.8704C70.1237 20.1318 69.9183 20.4398 69.769 20.7946C69.6196 21.1493 69.5262 21.5227 69.4889 21.9148C69.4702 22.3069 69.5076 22.699 69.6009 23.0911C69.6943 23.4832 69.8436 23.8286 70.049 24.1273C70.2357 24.3887 70.5531 24.6128 71.0012 24.7995C71.4493 24.9675 71.9161 25.0702 72.4016 25.1075C72.9617 25.1449 73.4471 24.9955 73.8579 24.6594C74.2873 24.3234 74.6047 23.9033 74.8101 23.3992C75.0341 22.8764 75.1368 22.3256 75.1182 21.7468C75.0995 21.1493 74.9408 20.6079 74.6421 20.1224C74.418 19.7677 74.1193 19.5063 73.7459 19.3383C73.3911 19.1702 73.0084 19.0862 72.5976 19.0862C72.1868 19.0675 71.7761 19.1329 71.3653 19.2822C70.9732 19.4129 70.6465 19.609 70.3851 19.8704ZM91.5446 23.4552C91.1899 23.2311 90.7885 23.0538 90.3404 22.9231C89.9109 22.7924 89.4628 22.671 88.9961 22.559C88.548 22.447 88.1092 22.3256 87.6798 22.1949C87.2503 22.0455 86.8582 21.8402 86.5035 21.5788C85.738 21 85.2899 20.2905 85.1592 19.4503C85.0472 18.5914 85.2339 17.7326 85.7193 16.8737C85.9807 16.4256 86.3261 16.0615 86.7556 15.7815C87.185 15.4827 87.6518 15.2587 88.1559 15.1093C88.6787 14.9413 89.2108 14.8479 89.7522 14.8293C90.2937 14.8106 90.8071 14.8386 91.2926 14.9133C91.61 14.9693 91.946 15.0533 92.3008 15.1653C92.6555 15.2587 92.9823 15.3894 93.281 15.5574C93.5984 15.7255 93.8785 15.9402 94.1212 16.2016C94.3826 16.4443 94.5693 16.7523 94.6813 17.1258C94.756 17.3685 94.7653 17.6019 94.7093 17.8259C94.672 18.05 94.5786 18.2367 94.4293 18.386C94.2986 18.5354 94.1212 18.6474 93.8971 18.7221C93.6918 18.7968 93.4677 18.8155 93.225 18.7781C92.9449 18.7221 92.6835 18.6381 92.4408 18.5261C92.1981 18.4141 91.9554 18.2927 91.7127 18.162C91.4699 18.0313 91.2179 17.9193 90.9565 17.8259C90.7138 17.7326 90.4524 17.6859 90.1723 17.6859C89.7429 17.6672 89.3881 17.7419 89.1081 17.9099C88.828 18.078 88.632 18.2834 88.5199 18.5261C88.4266 18.7688 88.4359 19.0302 88.548 19.3103C88.6787 19.5903 88.94 19.833 89.3321 20.0384C89.6869 20.2251 90.079 20.3745 90.5084 20.4865C90.9378 20.5985 91.3579 20.7106 91.7687 20.8226C92.1981 20.9346 92.6089 21.0653 93.0009 21.2147C93.4117 21.364 93.7758 21.5694 94.0932 21.8308C94.7093 22.3349 95.0827 22.9231 95.2134 23.5952C95.3628 24.2674 95.3255 24.9302 95.1014 25.5837C94.8774 26.2371 94.4853 26.8159 93.9252 27.32C93.3837 27.8242 92.7396 28.1602 91.9927 28.3283C91.4513 28.4403 90.8631 28.4963 90.2283 28.4963C89.6122 28.4963 88.9961 28.431 88.3799 28.3003C87.7825 28.1696 87.2037 27.9642 86.6435 27.6841C86.1021 27.4041 85.6446 27.0493 85.2712 26.6199C85.0098 26.3212 84.8698 25.9851 84.8511 25.6117C84.8511 25.2196 84.9258 24.8835 85.0752 24.6034C85.2432 24.3047 85.4766 24.0993 85.7753 23.9873C86.0741 23.8753 86.4101 23.9406 86.7836 24.1833C87.0823 24.3887 87.437 24.5941 87.8478 24.7995C88.2586 24.9862 88.6693 25.1356 89.0801 25.2476C89.4908 25.3596 89.8829 25.4156 90.2563 25.4156C90.6484 25.4156 90.9845 25.3316 91.2646 25.1636C91.6753 24.9022 91.89 24.6034 91.9087 24.2674C91.9274 23.9126 91.806 23.6419 91.5446 23.4552ZM110.658 16.0335C110.807 16.3883 110.817 16.7804 110.686 17.2098C110.574 17.6392 110.359 17.9193 110.042 18.05C109.874 18.1247 109.65 18.19 109.37 18.246C109.09 18.2834 108.782 18.3207 108.445 18.358C108.128 18.3954 107.811 18.4234 107.493 18.4421C107.176 18.4607 106.905 18.4701 106.681 18.4701C106.7 19.0302 106.718 19.609 106.737 20.2065C106.756 20.7852 106.774 21.3547 106.793 21.9148C106.812 22.475 106.821 23.0164 106.821 23.5392C106.821 24.0433 106.812 24.5007 106.793 24.9115C106.793 25.1916 106.793 25.5183 106.793 25.8917C106.793 26.2465 106.765 26.5919 106.709 26.928C106.672 27.264 106.606 27.5628 106.513 27.8242C106.42 28.0669 106.28 28.2256 106.093 28.3003C105.514 28.543 104.982 28.6083 104.497 28.4963C104.03 28.4029 103.694 28.2069 103.488 27.9082C103.339 27.6655 103.227 27.3854 103.152 27.068C103.078 26.7319 103.022 26.3958 102.984 26.0598C102.966 25.705 102.956 25.3689 102.956 25.0515C102.975 24.7155 102.984 24.4261 102.984 24.1833C103.003 23.3992 103.012 22.5123 103.012 21.5227C103.031 20.5145 103.04 19.5063 103.04 18.4981H102.62C102.396 18.4981 102.107 18.4981 101.752 18.4981C101.416 18.4794 101.07 18.4514 100.716 18.4141C100.38 18.358 100.062 18.2927 99.7635 18.218C99.4648 18.1247 99.2501 17.994 99.1194 17.8259C98.914 17.5832 98.7833 17.3218 98.7273 17.0417C98.6899 16.7617 98.7086 16.5003 98.7833 16.2576C98.8766 15.9962 99.0167 15.7721 99.2034 15.5854C99.3901 15.38 99.6048 15.2493 99.8475 15.1933C100.184 15.1 100.66 15.0533 101.276 15.0533C101.892 15.0346 102.471 15.0346 103.012 15.0533C102.994 14.8666 102.984 14.6892 102.984 14.5212C102.984 14.3345 102.975 14.1571 102.956 13.9891C102.938 13.765 102.928 13.485 102.928 13.1489C102.928 12.7941 102.947 12.4487 102.984 12.1126C103.04 11.7579 103.124 11.4312 103.236 11.1324C103.348 10.815 103.507 10.5723 103.712 10.4043C103.992 10.1802 104.273 10.0589 104.553 10.0402C104.851 10.0028 105.122 10.0402 105.365 10.1522C105.626 10.2642 105.841 10.4323 106.009 10.6563C106.196 10.8617 106.326 11.0951 106.401 11.3565C106.457 11.5805 106.504 11.8513 106.541 12.1687C106.578 12.4674 106.597 12.7848 106.597 13.1209C106.616 13.4569 106.625 13.793 106.625 14.1291C106.625 14.4652 106.625 14.7732 106.625 15.0533H106.905C107.185 15.0533 107.512 15.044 107.885 15.0253C108.259 15.0066 108.623 15.016 108.978 15.0533C109.351 15.0906 109.687 15.184 109.986 15.3334C110.285 15.4641 110.509 15.6974 110.658 16.0335ZM123.933 24.5474C124.157 24.4914 124.381 24.4541 124.605 24.4354C124.848 24.4167 125.063 24.4447 125.25 24.5194C125.455 24.5941 125.623 24.7248 125.754 24.9115C125.884 25.0795 125.95 25.3223 125.95 25.6397C125.95 25.8637 125.894 26.0784 125.782 26.2838C125.67 26.4892 125.53 26.6759 125.362 26.8439C125.194 27.012 125.007 27.1613 124.801 27.292C124.596 27.4041 124.4 27.4974 124.213 27.5721C123.672 27.8148 123.046 28.0015 122.337 28.1322C121.646 28.2629 120.927 28.3096 120.18 28.2723C119.172 28.2349 118.201 28.0389 117.268 27.6841C116.353 27.3107 115.634 26.7039 115.111 25.8637C114.626 25.0422 114.336 24.1273 114.243 23.1191C114.15 22.1109 114.196 21.1587 114.383 20.2625C114.589 19.1796 114.934 18.302 115.419 17.6299C115.923 16.9391 116.521 16.3883 117.212 15.9775C118.052 15.4921 118.995 15.24 120.04 15.2213C121.086 15.2027 122.085 15.408 123.037 15.8375C123.672 16.1175 124.241 16.5003 124.745 16.9857C125.25 17.4525 125.632 18.022 125.894 18.6941C125.968 18.8622 126.024 19.0675 126.062 19.3103C126.118 19.553 126.155 19.8144 126.174 20.0944C126.192 20.3558 126.192 20.6172 126.174 20.8786C126.155 21.14 126.108 21.3734 126.034 21.5788C125.922 21.9148 125.782 22.1762 125.614 22.3629C125.446 22.5496 125.231 22.6897 124.969 22.783C124.708 22.8764 124.391 22.9417 124.017 22.9791C123.663 22.9977 123.233 23.0164 122.729 23.0351C122.281 23.0538 121.861 23.0631 121.469 23.0631C121.077 23.0631 120.675 23.0631 120.264 23.0631C119.854 23.0444 119.424 23.0351 118.976 23.0351C118.547 23.0164 118.061 22.9977 117.52 22.9791C117.464 23.3525 117.511 23.6792 117.66 23.9593C117.828 24.2207 118.052 24.4447 118.332 24.6314C118.612 24.7995 118.929 24.9302 119.284 25.0235C119.639 25.1169 119.984 25.1729 120.32 25.1916C120.955 25.2289 121.562 25.1822 122.141 25.0515C122.72 24.9022 123.317 24.7341 123.933 24.5474ZM122.729 19.1142C122.374 18.7035 122.001 18.4047 121.609 18.218C121.31 18.0873 120.993 18.0313 120.657 18.05C120.339 18.05 120.031 18.0966 119.732 18.19C119.191 18.3207 118.733 18.6008 118.36 19.0302C118.323 19.0675 118.257 19.1609 118.164 19.3103C118.071 19.4409 117.977 19.581 117.884 19.7303C117.809 19.8797 117.753 20.0197 117.716 20.1504C117.679 20.2811 117.697 20.3465 117.772 20.3465H123.261C123.242 20.0851 123.196 19.8704 123.121 19.7023C123.046 19.5156 122.916 19.3196 122.729 19.1142ZM130.8 18.4701C130.8 18.246 130.8 17.994 130.8 17.7139C130.8 17.4152 130.809 17.1164 130.828 16.8177C130.846 16.5003 130.874 16.2016 130.912 15.9215C130.968 15.6228 131.042 15.3614 131.136 15.1373C131.285 14.8012 131.518 14.5772 131.836 14.4652C132.153 14.3345 132.499 14.2785 132.872 14.2971C133.264 14.2971 133.572 14.3625 133.796 14.4932C134.02 14.6239 134.188 14.8012 134.3 15.0253C134.412 15.2307 134.478 15.4734 134.496 15.7535C134.534 16.0149 134.552 16.2949 134.552 16.5936C134.72 16.2949 134.944 16.0522 135.225 15.8655C135.523 15.6788 135.822 15.5294 136.121 15.4174C136.419 15.3054 136.69 15.2307 136.933 15.1933C137.176 15.1373 137.316 15.1093 137.353 15.1093C137.82 15.072 138.24 15.0626 138.613 15.0813C139.005 15.1 139.435 15.184 139.902 15.3334C140.2 15.4454 140.508 15.6041 140.826 15.8095C141.143 15.9962 141.423 16.2202 141.666 16.4816C141.909 16.743 142.067 17.0324 142.142 17.3498C142.235 17.6485 142.198 17.966 142.03 18.302C141.769 18.7688 141.479 19.0022 141.162 19.0022C140.844 18.9835 140.499 18.9275 140.126 18.8341C139.92 18.7968 139.678 18.7128 139.397 18.5821C139.117 18.4514 138.875 18.3674 138.669 18.33C138.034 18.2367 137.474 18.2834 136.989 18.4701C136.503 18.6568 136.083 18.8808 135.729 19.1422C135.318 19.4596 134.963 19.8237 134.664 20.2345V24.2674C134.664 24.7715 134.655 25.2943 134.636 25.8357C134.636 26.3772 134.562 26.8719 134.412 27.32C134.282 27.7495 134.048 28.1042 133.712 28.3843C133.395 28.6457 132.928 28.7577 132.312 28.7204C131.976 28.7017 131.677 28.543 131.416 28.2442C131.154 27.9268 130.996 27.6188 130.94 27.32C130.902 27.04 130.874 26.7039 130.856 26.3118C130.837 25.9197 130.818 25.509 130.8 25.0795C130.8 24.6501 130.8 24.2207 130.8 23.7913C130.8 23.3432 130.8 22.9324 130.8 22.559V18.4701ZM151.737 9.228C152.988 8.76123 154.118 8.55585 155.126 8.61187C156.153 8.66788 157.068 8.92927 157.871 9.39604C158.674 9.84414 159.355 10.4509 159.915 11.2164C160.494 11.982 160.961 12.8408 161.316 13.793C161.596 14.5025 161.81 15.2493 161.96 16.0335C162.109 16.8177 162.193 17.6019 162.212 18.386C162.249 19.1516 162.221 19.9077 162.128 20.6546C162.053 21.4014 161.922 22.0922 161.736 22.727C161.624 23.1564 161.493 23.5485 161.344 23.9033C161.194 24.258 161.017 24.6128 160.811 24.9675C160.345 25.7704 159.738 26.4238 158.991 26.928C158.263 27.4321 157.46 27.7868 156.582 27.9922C155.985 28.1416 155.369 28.2162 154.734 28.2162C154.099 28.1976 153.474 28.1136 152.858 27.9642C152.242 27.7961 151.644 27.5628 151.065 27.264C150.505 26.9466 149.992 26.5545 149.525 26.0878C148.946 25.5276 148.47 24.8835 148.097 24.1553C147.723 23.4085 147.434 22.6337 147.228 21.8308C147.023 21.0093 146.892 20.1878 146.836 19.3663C146.78 18.5447 146.78 17.7606 146.836 17.0137C146.892 16.3229 147.023 15.5854 147.228 14.8012C147.452 14.0171 147.77 13.2609 148.181 12.5327C148.591 11.8046 149.086 11.1511 149.665 10.5723C150.262 9.97484 150.953 9.52674 151.737 9.228ZM158.291 21.2147C158.515 20.3371 158.608 19.3476 158.571 18.246C158.534 17.1444 158.356 16.1082 158.039 15.1373C157.833 14.5399 157.572 14.0171 157.255 13.569C156.956 13.1022 156.592 12.7475 156.162 12.5047C155.752 12.262 155.266 12.1407 154.706 12.1407C154.146 12.1407 153.52 12.3087 152.83 12.6448C152.419 12.8501 152.064 13.1302 151.765 13.485C151.485 13.8397 151.252 14.2411 151.065 14.6892C150.897 15.1373 150.757 15.6041 150.645 16.0895C150.552 16.575 150.496 17.0417 150.477 17.4898C150.44 17.9753 150.43 18.4887 150.449 19.0302C150.468 19.553 150.524 20.0851 150.617 20.6265C150.729 21.1493 150.879 21.6534 151.065 22.1389C151.252 22.6057 151.504 23.0257 151.821 23.3992C152.307 23.9593 152.867 24.3514 153.502 24.5754C154.155 24.7808 154.799 24.8088 155.434 24.6594C156.461 24.4354 157.245 23.7539 157.787 22.615C158.011 22.2042 158.179 21.7375 158.291 21.2147ZM174.875 16.5376C175.192 16.631 175.397 16.8084 175.491 17.0698C175.584 17.3125 175.612 17.5739 175.575 17.8539C175.463 18.4327 175.145 18.7875 174.623 18.9182C174.324 18.9928 174.016 19.0302 173.698 19.0302C173.4 19.0302 173.092 19.0395 172.774 19.0582V25.5276C172.774 25.9757 172.746 26.4332 172.69 26.8999C172.69 27.068 172.643 27.2454 172.55 27.4321C172.513 27.5254 172.485 27.5814 172.466 27.6001C172.466 27.6374 172.447 27.6935 172.41 27.7681C172.298 27.9735 172.149 28.1416 171.962 28.2723C171.551 28.4963 171.112 28.5523 170.646 28.4403C170.366 28.3843 170.151 28.2909 170.002 28.1602C169.834 28.0295 169.712 27.8708 169.637 27.6841C169.6 27.5908 169.572 27.4974 169.553 27.4041C169.535 27.3107 169.507 27.2174 169.469 27.124C169.451 27.0306 169.432 26.9466 169.413 26.8719C169.413 26.7786 169.413 26.7039 169.413 26.6479V25.0235C169.413 24.0526 169.413 23.0444 169.413 21.9989C169.432 20.9533 169.441 19.9451 169.441 18.9742C169.012 18.9555 168.564 18.9462 168.097 18.9462C167.649 18.9275 167.322 18.8155 167.117 18.6101C167.005 18.4981 166.93 18.358 166.893 18.19C166.856 18.0033 166.837 17.8166 166.837 17.6299C166.856 17.4432 166.893 17.2751 166.949 17.1258C167.005 16.9577 167.08 16.8364 167.173 16.7617C167.416 16.5376 167.63 16.4163 167.817 16.3976C168.022 16.3603 168.275 16.3323 168.573 16.3136C168.611 16.3136 168.732 16.3136 168.937 16.3136C169.161 16.2949 169.301 16.2856 169.357 16.2856C169.376 15.6508 169.395 15.016 169.413 14.3812C169.432 13.7463 169.488 13.1675 169.581 12.6448C169.694 12.1033 169.852 11.6365 170.058 11.2445C170.282 10.8337 170.618 10.5256 171.066 10.3202C171.607 10.0775 172.223 9.92816 172.914 9.87215C173.605 9.81614 174.231 9.90015 174.791 10.1242C175.052 10.2176 175.304 10.4043 175.547 10.6843C175.808 10.9644 175.93 11.2725 175.911 11.6085C175.892 11.9446 175.827 12.2527 175.715 12.5327C175.603 12.8128 175.36 12.9995 174.987 13.0929C174.819 13.1302 174.641 13.1489 174.455 13.1489C174.287 13.1302 174.109 13.1209 173.922 13.1209C173.736 13.1209 173.558 13.1489 173.39 13.2049C173.241 13.2422 173.11 13.3263 172.998 13.4569C172.905 13.569 172.84 13.7183 172.802 13.905C172.784 14.0918 172.765 14.2878 172.746 14.4932C172.728 14.6986 172.718 14.9039 172.718 15.1093C172.737 15.296 172.746 15.4547 172.746 15.5854V16.2856C173.176 16.3229 173.568 16.3509 173.922 16.3696C174.296 16.3883 174.613 16.4443 174.875 16.5376ZM195.756 26.2558C195.738 26.5732 195.691 26.9093 195.616 27.264C195.56 27.6188 195.383 27.9082 195.084 28.1322C194.86 28.3189 194.608 28.431 194.328 28.4683C194.048 28.5056 193.768 28.487 193.488 28.4123C193.226 28.3563 192.974 28.2629 192.732 28.1322C192.489 27.9829 192.293 27.8055 192.144 27.6001C191.509 26.8159 190.921 26.0131 190.379 25.1916C189.856 24.3514 189.324 23.5112 188.783 22.671L186.43 19.1142C186.113 18.6101 185.777 18.05 185.422 17.4338C185.067 16.799 184.703 16.2109 184.33 15.6694L184.246 26.3678V26.6199C184.246 26.9186 184.19 27.2174 184.078 27.5161C183.984 27.7961 183.816 28.0389 183.574 28.2442C183.387 28.3936 183.144 28.4963 182.845 28.5523C182.379 28.6457 181.987 28.6177 181.669 28.4683C181.37 28.3189 181.128 28.1136 180.941 27.8522C180.773 27.5908 180.652 27.292 180.577 26.956C180.521 26.6012 180.512 26.2558 180.549 25.9197V25.4436L180.605 23.2591L180.633 19.1982C180.652 18.6008 180.661 17.994 180.661 17.3778C180.661 16.743 180.661 16.0989 180.661 15.4454C180.642 14.6425 180.642 13.793 180.661 12.8968C180.698 12.0006 180.736 11.1604 180.773 10.3763C180.81 9.94683 180.913 9.58275 181.081 9.28402C181.156 9.02262 181.352 8.79857 181.669 8.61187C181.875 8.48117 182.136 8.39715 182.453 8.35981C182.789 8.32247 183.079 8.3318 183.322 8.38782C183.415 8.42516 183.508 8.47184 183.602 8.52785C183.695 8.56519 183.788 8.61187 183.882 8.66788C183.975 8.74256 184.059 8.81725 184.134 8.89193C184.227 8.96661 184.311 9.05063 184.386 9.14398C184.479 9.23734 184.563 9.34003 184.638 9.45205C184.713 9.54541 184.787 9.63876 184.862 9.73212C184.918 9.84414 184.974 9.94683 185.03 10.0402C185.086 10.1335 185.151 10.2269 185.226 10.3202L185.534 10.7683L192.003 20.9626V19.1142C192.003 18.5167 191.994 17.9099 191.975 17.2938C191.975 16.659 191.966 16.0055 191.947 15.3334C191.947 14.5492 191.947 13.709 191.947 12.8128C191.966 11.9166 191.994 11.0764 192.031 10.2922C192.031 9.97484 192.125 9.61076 192.312 9.2C192.405 8.95728 192.564 8.76123 192.788 8.61187C193.012 8.4625 193.264 8.35981 193.544 8.3038C193.824 8.24779 194.104 8.24779 194.384 8.3038C194.664 8.35981 194.907 8.47183 195.112 8.63987C195.168 8.69589 195.224 8.76123 195.28 8.83592C195.336 8.9106 195.383 8.99462 195.42 9.08797C195.514 9.33069 195.57 9.54541 195.588 9.73212C195.644 9.99351 195.672 10.2269 195.672 10.4323C195.672 12.7661 195.672 15.1467 195.672 17.5739C195.691 20.0011 195.71 22.3816 195.728 24.7155C195.728 24.9769 195.738 25.2382 195.756 25.4996C195.775 25.7424 195.775 25.9944 195.756 26.2558ZM203.971 15.7255C204.588 15.4267 205.232 15.212 205.904 15.0813C206.576 14.9506 207.239 14.9226 207.892 14.9973C208.564 15.072 209.209 15.2493 209.825 15.5294C210.46 15.8095 211.038 16.2016 211.561 16.7057C211.991 17.1351 212.364 17.6579 212.681 18.274C212.999 18.8715 213.232 19.4596 213.382 20.0384C213.699 21.0653 213.746 22.1015 213.522 23.1471C213.298 24.1927 212.915 25.1636 212.373 26.0598C212.112 26.4705 211.785 26.8439 211.393 27.18C211.02 27.4974 210.618 27.7588 210.189 27.9642C209.629 28.2256 209.022 28.4029 208.368 28.4963C207.715 28.6083 207.08 28.6363 206.464 28.5803C205.344 28.5243 204.354 28.2442 203.495 27.7401C202.655 27.236 201.974 26.5919 201.451 25.8077C200.947 25.0235 200.611 24.1367 200.443 23.1471C200.293 22.1389 200.359 21.112 200.639 20.0664C200.937 18.9462 201.367 18.0406 201.927 17.3498C202.506 16.6403 203.187 16.0989 203.971 15.7255ZM204.812 19.4783C204.532 19.7397 204.317 20.0664 204.168 20.4585C204.018 20.8506 203.925 21.2614 203.887 21.6908C203.85 22.1015 203.878 22.5216 203.971 22.9511C204.083 23.3618 204.252 23.7352 204.476 24.0713C204.662 24.3514 204.998 24.5848 205.484 24.7715C205.969 24.9582 206.473 25.0702 206.996 25.1075C207.594 25.1449 208.116 24.9862 208.564 24.6314C209.013 24.258 209.349 23.8006 209.573 23.2591C209.815 22.7177 209.927 22.1295 209.909 21.4947C209.89 20.8599 209.722 20.2811 209.405 19.7584C209.181 19.3849 208.863 19.1142 208.452 18.9462C208.06 18.7595 207.64 18.6661 207.192 18.6661C206.763 18.6474 206.333 18.7128 205.904 18.8622C205.474 18.9928 205.11 19.1982 204.812 19.4783ZM228.709 16.0335C228.858 16.3883 228.868 16.7804 228.737 17.2098C228.625 17.6392 228.41 17.9193 228.093 18.05C227.925 18.1247 227.701 18.19 227.421 18.246C227.141 18.2834 226.833 18.3207 226.497 18.358C226.179 18.3954 225.862 18.4234 225.544 18.4421C225.227 18.4607 224.956 18.4701 224.732 18.4701C224.751 19.0302 224.769 19.609 224.788 20.2065C224.807 20.7852 224.825 21.3547 224.844 21.9148C224.863 22.475 224.872 23.0164 224.872 23.5392C224.872 24.0433 224.863 24.5007 224.844 24.9115C224.844 25.1916 224.844 25.5183 224.844 25.8917C224.844 26.2465 224.816 26.5919 224.76 26.928C224.723 27.264 224.657 27.5628 224.564 27.8242C224.471 28.0669 224.331 28.2256 224.144 28.3003C223.565 28.543 223.033 28.6083 222.548 28.4963C222.081 28.4029 221.745 28.2069 221.539 27.9082C221.39 27.6655 221.278 27.3854 221.203 27.068C221.129 26.7319 221.073 26.3958 221.035 26.0598C221.017 25.705 221.007 25.3689 221.007 25.0515C221.026 24.7155 221.035 24.4261 221.035 24.1833C221.054 23.3992 221.063 22.5123 221.063 21.5227C221.082 20.5145 221.091 19.5063 221.091 18.4981H220.671C220.447 18.4981 220.158 18.4981 219.803 18.4981C219.467 18.4794 219.122 18.4514 218.767 18.4141C218.431 18.358 218.113 18.2927 217.815 18.218C217.516 18.1247 217.301 17.994 217.17 17.8259C216.965 17.5832 216.834 17.3218 216.778 17.0417C216.741 16.7617 216.76 16.5003 216.834 16.2576C216.928 15.9962 217.068 15.7721 217.254 15.5854C217.441 15.38 217.656 15.2493 217.899 15.1933C218.235 15.1 218.711 15.0533 219.327 15.0533C219.943 15.0346 220.522 15.0346 221.063 15.0533C221.045 14.8666 221.035 14.6892 221.035 14.5212C221.035 14.3345 221.026 14.1571 221.007 13.9891C220.989 13.765 220.979 13.485 220.979 13.1489C220.979 12.7941 220.998 12.4487 221.035 12.1126C221.091 11.7579 221.175 11.4312 221.287 11.1324C221.399 10.815 221.558 10.5723 221.763 10.4043C222.044 10.1802 222.324 10.0589 222.604 10.0402C222.902 10.0028 223.173 10.0402 223.416 10.1522C223.677 10.2642 223.892 10.4323 224.06 10.6563C224.247 10.8617 224.377 11.0951 224.452 11.3565C224.508 11.5805 224.555 11.8513 224.592 12.1687C224.629 12.4674 224.648 12.7848 224.648 13.1209C224.667 13.4569 224.676 13.793 224.676 14.1291C224.676 14.4652 224.676 14.7732 224.676 15.0533H224.956C225.236 15.0533 225.563 15.044 225.936 15.0253C226.31 15.0066 226.674 15.016 227.029 15.0533C227.402 15.0906 227.738 15.184 228.037 15.3334C228.336 15.4641 228.56 15.6974 228.709 16.0335ZM235.489 16.5936C236.049 16.3136 236.637 16.1175 237.253 16.0055C237.869 15.8748 238.476 15.8468 239.074 15.9215C239.69 15.9775 240.278 16.1362 240.838 16.3976C241.398 16.6403 241.921 16.9951 242.406 17.4618C242.892 17.9473 243.265 18.4794 243.527 19.0582C243.788 19.637 243.975 20.2811 244.087 20.9906C244.161 21.4761 244.283 21.9242 244.451 22.3349C244.619 22.7457 244.796 23.1564 244.983 23.5672C245.188 23.978 245.375 24.3887 245.543 24.7995C245.73 25.2102 245.879 25.6397 245.991 26.0878C246.085 26.5172 246.047 26.9373 245.879 27.348C245.73 27.7401 245.412 27.9829 244.927 28.0762C244.647 28.1322 244.376 28.1136 244.115 28.0202C243.872 27.9082 243.648 27.7588 243.443 27.5721C243.237 27.3667 243.051 27.152 242.883 26.928C242.733 26.6852 242.593 26.4612 242.462 26.2558C242.033 26.8159 241.566 27.2547 241.062 27.5721C240.558 27.8708 239.951 28.0669 239.242 28.1602C238.644 28.2349 238.075 28.2536 237.533 28.2162C236.992 28.1789 236.413 28.0762 235.797 27.9082C234.994 27.7028 234.331 27.348 233.808 26.8439C233.304 26.3212 232.912 25.7237 232.632 25.0515C232.371 24.3607 232.231 23.6232 232.212 22.839C232.193 22.0549 232.287 21.28 232.492 20.5145C232.754 19.5063 233.146 18.6848 233.668 18.05C234.191 17.4152 234.798 16.9297 235.489 16.5936ZM236.189 19.8704C235.928 20.1318 235.722 20.4398 235.573 20.7946C235.424 21.1493 235.33 21.5227 235.293 21.9148C235.274 22.3069 235.311 22.699 235.405 23.0911C235.498 23.4832 235.648 23.8286 235.853 24.1273C236.04 24.3887 236.357 24.6128 236.805 24.7995C237.253 24.9675 237.72 25.0702 238.205 25.1075C238.766 25.1449 239.251 24.9955 239.662 24.6594C240.091 24.3234 240.409 23.9033 240.614 23.3992C240.838 22.8764 240.941 22.3256 240.922 21.7468C240.903 21.1493 240.745 20.6079 240.446 20.1224C240.222 19.7677 239.923 19.5063 239.55 19.3383C239.195 19.1702 238.812 19.0862 238.402 19.0862C237.991 19.0675 237.58 19.1329 237.169 19.2822C236.777 19.4129 236.45 19.609 236.189 19.8704ZM257.349 23.4552C256.994 23.2311 256.592 23.0538 256.144 22.9231C255.715 22.7924 255.267 22.671 254.8 22.559C254.352 22.447 253.913 22.3256 253.484 22.1949C253.054 22.0455 252.662 21.8402 252.307 21.5788C251.542 21 251.094 20.2905 250.963 19.4503C250.851 18.5914 251.038 17.7326 251.523 16.8737C251.785 16.4256 252.13 16.0615 252.559 15.7815C252.989 15.4827 253.456 15.2587 253.96 15.1093C254.483 14.9413 255.015 14.8479 255.556 14.8293C256.098 14.8106 256.611 14.8386 257.096 14.9133C257.414 14.9693 257.75 15.0533 258.105 15.1653C258.459 15.2587 258.786 15.3894 259.085 15.5574C259.402 15.7255 259.682 15.9402 259.925 16.2016C260.186 16.4443 260.373 16.7523 260.485 17.1258C260.56 17.3685 260.569 17.6019 260.513 17.8259C260.476 18.05 260.383 18.2367 260.233 18.386C260.102 18.5354 259.925 18.6474 259.701 18.7221C259.496 18.7968 259.272 18.8155 259.029 18.7781C258.749 18.7221 258.487 18.6381 258.245 18.5261C258.002 18.4141 257.759 18.2927 257.517 18.162C257.274 18.0313 257.022 17.9193 256.76 17.8259C256.518 17.7326 256.256 17.6859 255.976 17.6859C255.547 17.6672 255.192 17.7419 254.912 17.9099C254.632 18.078 254.436 18.2834 254.324 18.5261C254.231 18.7688 254.24 19.0302 254.352 19.3103C254.483 19.5903 254.744 19.833 255.136 20.0384C255.491 20.2251 255.883 20.3745 256.312 20.4865C256.742 20.5985 257.162 20.7106 257.573 20.8226C258.002 20.9346 258.413 21.0653 258.805 21.2147C259.216 21.364 259.58 21.5694 259.897 21.8308C260.513 22.3349 260.887 22.9231 261.017 23.5952C261.167 24.2674 261.129 24.9302 260.905 25.5837C260.681 26.2371 260.289 26.8159 259.729 27.32C259.188 27.8242 258.543 28.1602 257.797 28.3283C257.255 28.4403 256.667 28.4963 256.032 28.4963C255.416 28.4963 254.8 28.431 254.184 28.3003C253.586 28.1696 253.008 27.9642 252.447 27.6841C251.906 27.4041 251.449 27.0493 251.075 26.6199C250.814 26.3212 250.674 25.9851 250.655 25.6117C250.655 25.2196 250.73 24.8835 250.879 24.6034C251.047 24.3047 251.281 24.0993 251.579 23.9873C251.878 23.8753 252.214 23.9406 252.587 24.1833C252.886 24.3887 253.241 24.5941 253.652 24.7995C254.062 24.9862 254.473 25.1356 254.884 25.2476C255.295 25.3596 255.687 25.4156 256.06 25.4156C256.452 25.4156 256.788 25.3316 257.068 25.1636C257.479 24.9022 257.694 24.6034 257.713 24.2674C257.731 23.9126 257.61 23.6419 257.349 23.4552Z" fill="#1E5BD7"/>
</svg>
